{
  "title": "Mr.Robot Season 2 S02 1080p WEB-DL 6CH HEVC x265-GIRAYS",
  "uid": 15884026,
  "size": 4934597056,
  "categoryP": "video",
  "categoryS": "hd___tv_shows",
  "magnet": "?xt=urn:btih:c50c316d5ac1ee8269a9e3cd0cdccbc4e7be9873&amp;dn=Mr.Robot+Season+2+S02+1080p+WEB-DL+6CH+HEVC+x265-GIRAYS&amp;tr=udp%3A%2F%2Ftracker.leechers-paradise.org%3A6969&amp;tr=udp%3A%2F%2Fzer0day.ch%3A1337&amp;tr=udp%3A%2F%2Fopen.demonii.com%3A1337&amp;tr=udp%3A%2F%2Ftracker.coppersurfer.tk%3A6969&amp;tr=udp%3A%2F%2Fexodus.desync.com%3A6969",
  "seeders": 77,
  "leechers": 45,
  "uploader": "insane86",
  "files": 16,
  "time": 1474634523,
  "description": "Source: Mr.Robot.S02.1080p.WEB-DL.DD5.1.H264-NTb\r\n\r\nScreenshots: \nhttps://postimg.org/image/3wm8elglt/ \nhttps://postimg.org/image/rovjq4imp/ \nhttps://postimg.org/image/qb3wutjdd/\r\n\r\nEnglish subtitles are included.\r\n\r\nUse latest MPC-HC, VLC, KMPlayer, Gom Player, or any other modern player to play X265 .\r\nPlease note that x265 requires more resources for adequate playback. If your audio is out of sync, then your machine can't handle it .\r\nSo be sure to have a strong PC or device to play it.\r\nIf you only have audio and no video, then please update your player.\r\n\r\nGeneral\r\nComplete name               : Mr.Robot.S02E01.eps2.0_unm4sk-pt1.tc.1080p.WEB-DL.H.265-GIRAYS.mkv\r\nFormat                      : Matroska\r\nFormat version              : Version 4 / Version 2\r\nFile size                   : 315 MiB\r\nDuration                    : 41mn 4s\r\nOverall bit rate            : 1 071 Kbps\r\nEncoded date                : UTC 2016-09-15 15:50:20\r\nWriting application         : mkvmerge v9.2.0 ('Photograph') 64bit\r\nWriting library             : libebml v1.3.3 + libmatroska v1.4.4\r\n\r\nVideo\r\nID                          : 1\r\nFormat                      : HEVC\r\nFormat/Info                 : High Efficiency Video Coding\r\nFormat profile              :   @Main\r\nCodec ID                    : V_MPEGH/ISO/HEVC\r\nDuration                    : 41mn 4s\r\nBit rate                    : 864 Kbps\r\nWidth                       : 1 920 pixels\r\nHeight                      : 1 080 pixels\r\nDisplay aspect ratio        : 16:9\r\nFrame rate mode             : Constant\r\nFrame rate                  : 23.976 (24000/1001) fps\r\nColor space                 : YUV\r\nChroma subsampling          : 4:2:0\r\nBit depth                   : 8 bits\r\nBits/(Pixel*Frame)          : 0.017\r\nStream size                 : 254 MiB (81%)\r\nWriting library             : x265 1.9+200-6098ba3e0cf16b11:[Windows][GCC 5.3.0][64 bit] 8bit+10bit+12bit\r\nDefault                     : Yes\r\nForced                      : No\r\n\r\nAudio\r\nID                          : 2\r\nFormat                      : AAC\r\nFormat/Info                 : Advanced Audio Codec\r\nFormat profile              : HE-AAC / LC\r\nCodec ID                    : A_AAC\r\nDuration                    : 41mn 4s\r\nBit rate                    : 205 Kbps\r\nChannel(s)                  : 6 channels\r\nChannel positions           : Front: L C R, Side: L R, LFE\r\nSampling rate               : 48.0 KHz / 24.0 KHz\r\nFrame rate                  : 23.438 fps (1024 spf)\r\nCompression mode            : Lossy\r\nDelay relative to video     : 40ms\r\nStream size                 : 60.1 MiB (19%)\r\nLanguage                    : English\r\nDefault                     : No\r\nForced                      : No\r\n\r\nText\r\nID                          : 3\r\nFormat                      : UTF-8\r\nCodec ID                    : S_TEXT/UTF8\r\nCodec ID/Info               : UTF-8 Plain Text\r\nDuration                    : 40mn 21s\r\nBit rate                    : 75 bps\r\nCount of elements           : 704\r\nStream size                 : 22.4 KiB (0%)\r\nLanguage                    : English\r\nDefault                     : No\r\nForced                      : No",
  "parsed": {
    "xt": "urn:btih:c50c316d5ac1ee8269a9e3cd0cdccbc4e7be9873",
    "dn": "Mr.Robot Season 2 S02 1080p WEB-DL 6CH HEVC x265-GIRAYS",
    "tr": [
      "udp://exodus.desync.com:6969",
      "udp://open.demonii.com:1337",
      "udp://tracker.coppersurfer.tk:6969",
      "udp://tracker.leechers-paradise.org:6969",
      "udp://zer0day.ch:1337"
    ],
    "infoHash": "c50c316d5ac1ee8269a9e3cd0cdccbc4e7be9873",
    "infoHashBuffer": {
      "type": "Buffer",
      "data": [
        197,
        12,
        49,
        109,
        90,
        193,
        238,
        130,
        105,
        169,
        227,
        205,
        12,
        220,
        203,
        196,
        231,
        190,
        152,
        115
      ]
    },
    "name": "Mr.Robot Season 2 S02 1080p WEB-DL 6CH HEVC x265-GIRAYS",
    "announce": [
      "udp://exodus.desync.com:6969",
      "udp://open.demonii.com:1337",
      "udp://tracker.coppersurfer.tk:6969",
      "udp://tracker.leechers-paradise.org:6969",
      "udp://zer0day.ch:1337"
    ],
    "urlList": []
  },
  "previous": 122,
  "peers": 208,
  "last_updated": "2016-12-25T13:21:02.644Z"
}